<?xml version="1.0" encoding="UTF-8"?>
<svg id="Layer_1" data-name="Layer 1" xmlns="http://www.w3.org/2000/svg" viewBox="0 0 562.38 587.81">
  <defs>
    <style>
      .cls-1 {
        fill: #fff;
        stroke-width: 0px;
      }
    </style>
  </defs>
  <path class="cls-1" d="m68.94,515.16c-12.11-28.4-24.17-56.74-36.27-85.07-9.09-21.28-18.29-42.53-27.31-63.84-1.75-4.12-3.08-8.45-4.3-12.77-1.93-6.84-1.16-13.45,1.82-19.95,25.56-55.67,51.07-111.36,76.56-167.06,4.3-9.38,8.46-18.83,12.71-28.23.59-1.3,1.33-2.54,2.31-4.38,4.65,10.23,8.96,19.86,13.39,29.44,24.48,52.91,49.05,105.77,73.45,158.71,12.48,27.07,24.66,54.29,37.01,81.42,3.44,7.55,8.11,14.07,16.32,18.03-55.38,31.32-110.35,62.41-165.7,93.71Z"/>
  <path class="cls-1" d="m372.79,75.61c22.84.2,39.02,11.12,48.76,31.32,11.28,23.39,21.94,47.08,32.85,70.65,25.95,56.06,51.95,112.1,77.75,168.23,2.82,6.14,5.44,12.68,6.4,19.29,2.07,14.36-7.61,25.95-22.08,27.18-49.79,4.24-99.59,8.33-149.39,12.42-29.55,2.43-59.2,3.93-88.63,7.38-20.14,2.36-38.53-9.83-45.95-26.46-11.74-26.31-24.15-52.31-36.13-78.51-26.11-57.09-52.14-114.21-78.17-171.33-1.31-2.88-2.56-5.8-3.6-8.78-5.04-14.47,2.12-28.33,17.2-31.29,11.23-2.21,22.77-2.95,34.21-3.87,67.42-5.42,134.86-10.7,202.29-16.02,1.49-.12,3-.15,4.49-.22Zm-84.87,295.15c.83-.06,1.66-.11,2.49-.18,41.68-3.44,83.36-6.87,125.03-10.34,18.93-1.57,37.86-3.08,56.77-4.87,14.44-1.37,19.42-10.2,13.43-23.35-3.25-7.12-6.68-14.16-9.97-21.27-20.75-44.9-41.45-89.83-62.25-134.71-6.79-14.65-13.31-29.46-20.93-43.67-5.63-10.5-15.3-16.27-27.47-16.2-8.31.04-16.62,1.11-24.92,1.75-36.7,2.87-73.4,5.72-110.1,8.65-16.11,1.29-32.23,2.49-48.3,4.19-15.32,1.63-20.62,11.58-14.2,25.51,21.04,45.68,42.03,91.38,63.04,137.07,9.32,20.27,18.41,40.65,28.03,60.79,5.78,12.1,16.03,17.32,29.35,16.63Z"/>
  <path class="cls-1" d="m519.11,415.86c-6.47,5.7-12.91,11.42-19.41,17.09-22.33,19.5-44.9,38.75-66.9,58.62-6.16,5.57-11.7,6-18.95,2.31,1.79-2.57,3.53-5.08,5.99-8.63-8.85.58-16.86,1.04-24.86,1.64-24.91,1.86-49.82,3.68-74.71,5.7-20.75,1.68-41.46,3.83-62.21,5.31-5.15.37-10.6-.43-15.6-1.82-4.24-1.18-4.26-3.22-1.08-6.36,18.83-18.62,37.64-37.25,56.55-55.78,1.29-1.26,3.34-2.3,5.12-2.44,71.23-5.64,142.46-11.17,213.7-16.7.63-.05,1.27,0,1.91,0l.46,1.07Zm-78.9,41.59c-.24-.4-.47-.79-.71-1.19-5.13.41-10.25.82-15.38,1.23-40.64,3.24-81.26,6.82-121.94,9.47-9.68.63-12.98,6.88-18.14,13.61,4.08-.41,7.18-.81,10.29-1.03,43.33-3.01,86.67-5.98,130-9.01,1.43-.1,3.25-.23,4.18-1.11,4.05-3.84,7.83-7.96,11.71-11.98Z"/>
  <path class="cls-1" d="m74.35,528.09c13.06-7.56,25.66-14.99,38.38-22.19,42.71-24.18,85.49-48.26,128.18-72.47,2.88-1.63,5.12-1.95,8.23-.39,6.72,3.37,13.97,4.09,22.23,2.26-1.01,1.52-1.43,2.51-2.15,3.17-9.73,9.06-19.28,18.28-31.03,24.9-43.5,24.49-86.86,49.2-130.35,73.7-12.33,6.95-21.86,5.72-29.69-3.33-1.38-1.59-2.38-3.51-3.81-5.65Z"/>
  <path class="cls-1" d="m503.45,32.17c12.6,1.88,24.28,1.07,34.96-5.07,10.46-6.01,17.63-14.84,20.87-27.1,6.12,10.41,2.41,33.22-4.52,42.34-9.51,12.52-22.19,17.99-38.02,18.34,0,2.01,0,3.8,0,5.58-.05,24.65.02,49.29-.19,73.94-.15,18.61-17.96,33.15-35.92,29.63-13.01-2.56-19.39-14.66-13.61-26.61,6.32-13.06,17.31-19.53,31.56-20.03,4.27-.15,4.83-1.55,4.82-5.17-.08-26.64.01-53.29.05-79.93,0-1.78,0-3.56,0-5.91Z"/>
  <path class="cls-1" d="m100.69,570.08c132.84,7.22,265.69,7.13,398.53-.09.08.6.17,1.19.25,1.79-6.92,1.49-13.82,3.12-20.77,4.44-7.11,1.35-14.25,2.63-21.43,3.49-6.12.73-12.33.7-18.48,1.24-12.4,1.1-24.76,2.68-37.18,3.46-11.17.7-22.39.58-33.59.86-16.69.42-33.38.82-50.06,1.37-4.98.16-9.94,1.08-14.91,1.16-5.77.1-11.56-.39-17.34-.51-8.46-.17-16.92-.15-25.38-.37-15.03-.38-30.06-.7-45.07-1.41-8.22-.39-16.38-1.66-24.59-2.31-4.13-.33-8.35.18-12.46-.28-13.4-1.51-26.73-3.99-40.17-4.74-8.45-.47-16.4-1.66-24.35-4.51-4.04-1.45-8.71-1.13-13.09-1.61.03-.66.06-1.31.1-1.97Z"/>
  <path class="cls-1" d="m473.78,565.77c-30.85-.02-61.53.39-87.16-20.15-6.75-5.41-12.45-12.44-17.6-19.48-5.29-7.24-1.85-14.07,7.15-15.54,14.03-2.29,27.55.19,40.59,5.32,24.23,9.54,42.78,25.9,56.48,47.91.24.38.26.9.53,1.94Z"/>
  <path class="cls-1" d="m132.95,565.78c2.2-3.71,3.74-6.8,5.73-9.56,15.14-20.99,34.59-36.3,59.57-43.8,8.94-2.68,18.25-3.86,27.61-1.73,10.19,2.32,13.52,9.73,8.17,18.78-7.12,12.03-17.95,20.05-30.28,25.91-22.16,10.55-45.93,10.85-70.81,10.41Z"/>
  <path class="cls-1" d="m237.49,191.87c.11-1.83.09-3.67.35-5.47,1.59-10.86,9.76-15.89,20-11.77,13.83,5.57,23.53,16.06,31.27,28.39,7.84,12.5,14.15,25.69,15.1,40.75.22,3.43-.06,7.03-.85,10.37-1.65,6.97-7.48,10.86-14.34,8.83-5.62-1.67-11.47-3.99-16.04-7.53-18.91-14.65-30.12-34.26-34.99-57.58-.17-.81-.27-1.65-.3-2.47-.05-1.16-.01-2.33-.01-3.49-.06,0-.12,0-.17,0Z"/>
  <path class="cls-1" d="m390.62,234.1c.21,14.5-8.92,20.99-21.74,14.19-7.9-4.2-15.33-10.12-21.43-16.7-12.64-13.64-21.25-29.77-24.21-48.39-1.14-7.2-1.24-14.83,5.56-19.53,6.67-4.61,13.43-1.49,19.78,1.76,14.87,7.61,24.54,20.19,32.17,34.49,5.68,10.64,9.8,21.86,9.88,34.19Z"/>
  <path class="cls-1" d="m305.54,294.43c8.62,2.62,16.81,5.99,25.33,7.51,18.83,3.35,36.19.43,49.52-15.02.97-1.13,1.8-2.39,2.67-3.6.84-1.17,1.66-2.36,2.92-4.15,5.79,11.99,10.07,23.53,7.4,36.44-2.07,10.02-10.36,16.46-21.31,16.92-11.14.47-21.37-2.59-30.96-8.08-12.96-7.43-24.39-16.73-34.18-28.03-.5-.58-.88-1.25-1.39-1.99Z"/>
</svg>